<?xml version="1.0" standalone="no"?><!DOCTYPE svg PUBLIC "-//W3C//DTD SVG 1.1//EN" "http://www.w3.org/Graphics/SVG/1.1/DTD/svg11.dtd"><svg t="1573050536574" class="icon" viewBox="0 0 1024 1024" version="1.1" xmlns="http://www.w3.org/2000/svg" p-id="5183" xmlns:xlink="http://www.w3.org/1999/xlink" width="200" height="200"><defs><style type="text/css"></style></defs><path d="M512 512a42.666667 42.666667 0 0 0-42.666667 42.666667v213.333333h85.333334v-213.333333a42.666667 42.666667 0 0 0-42.666667-42.666667z" fill="#515151" p-id="5184"></path><path d="M512 178.346667a21.333333 21.333333 0 0 1 14.08 5.12l298.666667 265.386666a22.186667 22.186667 0 0 1 7.253333 16.213334V810.666667a21.333333 21.333333 0 0 1-21.333333 21.333333H213.333333a21.333333 21.333333 0 0 1-21.333333-21.333333v-345.6a22.186667 22.186667 0 0 1 7.253333-16.213334l298.666667-265.386666a21.333333 21.333333 0 0 1 14.08-5.12m0-64a85.333333 85.333333 0 0 0-56.746667 21.333333l-298.666666 265.386667A85.333333 85.333333 0 0 0 128 465.066667V810.666667a85.333333 85.333333 0 0 0 85.333333 85.333333h597.333334a85.333333 85.333333 0 0 0 85.333333-85.333333v-345.6a85.333333 85.333333 0 0 0-28.586667-64l-298.666666-265.386667a85.333333 85.333333 0 0 0-56.746667-21.333333z" fill="#515151" p-id="5185"></path></svg>