<?xml version="1.0" standalone="no"?><!DOCTYPE svg PUBLIC "-//W3C//DTD SVG 1.1//EN" "http://www.w3.org/Graphics/SVG/1.1/DTD/svg11.dtd"><svg t="1573050644242" class="icon" viewBox="0 0 1024 1024" version="1.1" xmlns="http://www.w3.org/2000/svg" p-id="5742" xmlns:xlink="http://www.w3.org/1999/xlink" width="200" height="200"><defs><style type="text/css"></style></defs><path d="M512 597.333333a42.666667 42.666667 0 0 0-42.666667 42.666667v128h85.333334v-128a42.666667 42.666667 0 0 0-42.666667-42.666667z" fill="#1296db" p-id="5743"></path><path d="M810.666667 896H213.333333a85.333333 85.333333 0 0 1-85.333333-85.333333v-128a31.573333 31.573333 0 0 1 11.946667-25.173334l185.6-146.346666A270.506667 270.506667 0 0 1 294.4 187.733333l4.266667-5.973333A203.52 203.52 0 0 1 469.333333 85.333333h85.333334a202.666667 202.666667 0 0 1 174.933333 98.986667l3.84 5.973333a270.506667 270.506667 0 0 1-34.133333 320.853334l183.893333 148.906666a31.573333 31.573333 0 0 1 11.946667 24.746667v128a85.333333 85.333333 0 0 1-25.6 60.16A82.346667 82.346667 0 0 1 810.666667 896zM190.72 696.32V810.666667a22.186667 22.186667 0 0 0 5.973333 14.933333 22.613333 22.613333 0 0 0 15.36 6.4l597.333334 3.413333a21.333333 21.333333 0 0 0 14.933333-5.973333 22.613333 22.613333 0 0 0 6.4-15.36v-113.92l-200.106667-162.56a30.72 30.72 0 0 1-11.946666-25.6 32.426667 32.426667 0 0 1 11.946666-25.173333 205.226667 205.226667 0 0 0 47.786667-264.533334l-3.413333-5.973333A139.52 139.52 0 0 0 554.666667 149.76h-85.333334a138.666667 138.666667 0 0 0-116.48 65.706667l-3.84 5.546666a206.08 206.08 0 0 0 44.8 265.386667 32.853333 32.853333 0 0 1 11.52 25.6 32 32 0 0 1-12.373333 24.746667z" fill="#1296db" p-id="5744"></path></svg>