<?xml version="1.0" standalone="no"?><!DOCTYPE svg PUBLIC "-//W3C//DTD SVG 1.1//EN" "http://www.w3.org/Graphics/SVG/1.1/DTD/svg11.dtd"><svg t="1573050587109" class="icon" viewBox="0 0 1024 1024" version="1.1" xmlns="http://www.w3.org/2000/svg" p-id="5509" xmlns:xlink="http://www.w3.org/1999/xlink" width="200" height="200"><defs><style type="text/css"></style></defs><path d="M640 682.666667H384a42.666667 42.666667 0 0 1-42.666667-42.666667v-42.666667h341.333334v42.666667a42.666667 42.666667 0 0 1-42.666667 42.666667z" fill="#1296db" p-id="5510"></path><path d="M831.573333 320a20.906667 20.906667 0 0 1 20.48 26.026667l-88.32 384a21.76 21.76 0 0 1-20.906666 16.64H281.173333a21.76 21.76 0 0 1-20.906666-16.64L165.973333 320h665.6m0-64H85.333333l112.64 488.533333a85.333333 85.333333 0 0 0 85.333334 66.133334h459.52a85.333333 85.333333 0 0 0 83.2-66.133334l88.32-384A85.333333 85.333333 0 0 0 831.573333 256z" fill="#1296db" p-id="5511"></path><path d="M216.746667 714.666667a32 32 0 0 1-31.146667-24.746667l-128-554.666667a32 32 0 0 1 62.293333-14.506666l128 554.666666a32 32 0 0 1-23.893333 38.4z" fill="#1296db" p-id="5512"></path><path d="M341.333333 896m-42.666666 0a42.666667 42.666667 0 1 0 85.333333 0 42.666667 42.666667 0 1 0-85.333333 0Z" fill="#1296db" p-id="5513"></path><path d="M682.666667 896m-42.666667 0a42.666667 42.666667 0 1 0 85.333333 0 42.666667 42.666667 0 1 0-85.333333 0Z" fill="#1296db" p-id="5514"></path></svg>